<svg xmlns="http://www.w3.org/2000/svg" viewBox="0 0 500 500"><g id="freepik--Tree--inject-153"><g><g><g><path d="M132.8727,278.8214c1.529,29.5221,9.7852,194.8464,9.7852,194.8464l-59.9291,.6509,16.8892-253.5038-26.8941-9.6596-5.6461-19.2009-22.7084-15.1432-11.1013-20.0782,4.2893-1.2271,12.2573,18.5495,14.3017,3.6572-6.1242-17.0843h6.8119l17.0245,39.5797,17.4731,4.2206,1.5954-71.9945c17.5444,9.6623,23.1576-6.426,23.1576-6.426,0,0,4.5383,112.722,7.089,121.239h0c2.2208-1.3179,4.7371-3.5839,7.1722-6.1104,5.9465-6.1704,11.0273-13.4105,15.2686-21.2969l1.1374-2.1148h5.4455l-27.2947,61.0964Z" style="fill:#263238;"></path><path d="M132.8727,278.8214c1.529,29.5221,9.7852,194.8464,9.7852,194.8464l-59.9291,.6509,16.8892-253.5038-26.8941-9.6596-5.6461-19.2009-22.7084-15.1432-11.1013-20.0782,4.2893-1.2271,12.2573,18.5495,14.3017,3.6572-6.1242-17.0843h6.8119l17.0245,39.5797,17.4731,4.2206,1.5954-71.9945c17.5444,9.6623,23.1576-6.426,23.1576-6.426,0,0,4.5383,112.722,7.089,121.239h0c2.2208-1.3179,4.7371-3.5839,7.1722-6.1104,5.9465-6.1704,11.0273-13.4105,15.2686-21.2969l1.1374-2.1148h5.4455l-27.2947,61.0964Z" style="fill:#fff;"></path></g></g><g><path d="M200.32219,93.7774c8.74381,3.1181,14.762,12.3696,14.4882,21.6484-.2738,9.2791-6.5706,17.9924-15.137,21.569-8.56639,3.5766-18.9422,2.0559-26.3973-3.4754-.3817,8.9096-6.4751,18.6074-14.9763,21.3012-8.5009,2.6938-18.5285-.4489-23.9717-7.5127-22.9103,14.3929-103.1307,19.7307-117.2308-41.5686-2.9121-12.6608,4.1395-26.0694,14.4772-33.9374,10.3379-7.8681,23.4736-11.0897,36.3687-12.6677,12.2331-19.4785,39.3615-30.125,62.1586-27.0659,22.7969,3.0593,43.0683,20.3111,49.7333,42.3254,23.2445,.0611,20.8259,20.9403,20.4871,19.3837Z" style="fill:#263238;"></path><path d="M200.32219,93.7774c8.74381,3.1181,14.762,12.3696,14.4882,21.6484-.2738,9.2791-6.5706,17.9924-15.137,21.569-8.56639,3.5766-18.9422,2.0559-26.3973-3.4754-.3817,8.9096-6.4751,18.6074-14.9763,21.3012-8.5009,2.6938-18.5285-.4489-23.9717-7.5127-22.9103,14.3929-103.1307,19.7307-117.2308-41.5686-2.9121-12.6608,4.1395-26.0694,14.4772-33.9374,10.3379-7.8681,23.4736-11.0897,36.3687-12.6677,12.2331-19.4785,39.3615-30.125,62.1586-27.0659,22.7969,3.0593,43.0683,20.3111,49.7333,42.3254,23.2445,.0611,20.8259,20.9403,20.4871,19.3837Z" style="fill:#fff;"></path></g><g><path d="M172.0157,214.3668c-2.5939,3.8342-7.4937,5.9645-12.067,5.2458-4.5729-.7182-8.5839-4.2482-9.8771-8.6931-5.43,3.8201-13.8194,2.8753-19.3168-.8466-5.4979-3.7218-8.3298-10.9891-6.7998-17.4493,1.5298-6.4603,7.32-11.6858,13.9029-12.5468,.6868-6.3173,3.8497-11.6239,9.2415-14.9867,5.3921-3.3625,12.343-4.096,18.3181-1.9334,7.077-1.2974,14.3227,1.2434,19.4864,6.2536,3.6782,3.5688,6.1292,8.6347,5.7007,13.7416-.4284,5.1069-4.1554,10.0121-9.188,10.9812,1.6765,3.8194,2.1526,8.1057,.5263,11.9466-1.6267,3.8404-6.0178,6.8335-9.9272,8.2871Z" style="fill:#263238;"></path><path d="M172.0157,214.3668c-2.5939,3.8342-7.4937,5.9645-12.067,5.2458-4.5729-.7182-8.5839-4.2482-9.8771-8.6931-5.43,3.8201-13.8194,2.8753-19.3168-.8466-5.4979-3.7218-8.3298-10.9891-6.7998-17.4493,1.5298-6.4603,7.32-11.6858,13.9029-12.5468,.6868-6.3173,3.8497-11.6239,9.2415-14.9867,5.3921-3.3625,12.343-4.096,18.3181-1.9334,7.077-1.2974,14.3227,1.2434,19.4864,6.2536,3.6782,3.5688,6.1292,8.6347,5.7007,13.7416-.4284,5.1069-4.1554,10.0121-9.188,10.9812,1.6765,3.8194,2.1526,8.1057,.5263,11.9466-1.6267,3.8404-6.0178,6.8335-9.9272,8.2871Z" style="fill:#fff; isolation:isolate; opacity:.5;"></path></g><g><path d="M56.5257,121.688c4.3766-1.5087,9.5738-.2701,12.7997,3.0502,3.2254,3.3203,4.3133,8.5515,2.6787,12.8824,6.6359,.2054,12.7775,5.9983,14.939,12.2754,2.1617,6.2773,.0629,13.7891-5.0394,18.0365-5.1026,4.2479-12.8703,4.9497-18.6514,1.6859-4.3425,4.6393-10.0578,6.9838-16.3889,6.4352-6.3308-.5484-12.3297-4.1352-15.8094-9.4524-6.4382-3.2116-10.707-9.5941-11.8278-16.7011-.7987-5.0623,.2831-10.585,3.6921-14.4115,3.4089-3.8268,9.3345-5.5114,13.9408-3.2649,.9526-4.0608,3.1456-7.7743,6.7522-9.8692,3.6068-2.0945,8.9153-1.8513,12.9144-.6665Z" style="fill:#263238;"></path><path d="M56.5257,121.688c4.3766-1.5087,9.5738-.2701,12.7997,3.0502,3.2254,3.3203,4.3133,8.5515,2.6787,12.8824,6.6359,.2054,12.7775,5.9983,14.939,12.2754,2.1617,6.2773,.0629,13.7891-5.0394,18.0365-5.1026,4.2479-12.8703,4.9497-18.6514,1.6859-4.3425,4.6393-10.0578,6.9838-16.3889,6.4352-6.3308-.5484-12.3297-4.1352-15.8094-9.4524-6.4382-3.2116-10.707-9.5941-11.8278-16.7011-.7987-5.0623,.2831-10.585,3.6921-14.4115,3.4089-3.8268,9.3345-5.5114,13.9408-3.2649,.9526-4.0608,3.1456-7.7743,6.7522-9.8692,3.6068-2.0945,8.9153-1.8513,12.9144-.6665Z" style="fill:#fff; isolation:isolate; opacity:.5;"></path></g></g></g><g id="freepik--Device--inject-153"><g><g id="freepik--freepik--Drone--inject-2--inject-153"><path d="M317.38829,94.1908c0,1.4413-8.3481,2.6097-18.646,2.6097s-18.646-1.1684-18.646-2.6097c0-1.4414,8.3481-2.6098,18.646-2.6098s18.646,1.1684,18.646,2.6098Z" style="fill:#09C6F8;"></path><path d="M317.38829,94.1908c0,1.4413-8.3481,2.6097-18.646,2.6097s-18.646-1.1684-18.646-2.6097c0-1.4414,8.3481-2.6098,18.646-2.6098s18.646,1.1684,18.646,2.6098Z" style="fill:#fff; isolation:isolate; opacity:.4;"></path><path d="M324.96869,104.5525v3.5197c-1.18469-.0858-2.378-.0858-3.56269-.2489-1.18471-.1631-2.36941-.249-3.53691-.5065l-1.7169-.3434-1.717-.4378c-.5808-.1387-1.1539-.3078-1.7169-.5065-.5924-.1889-1.159-.352-1.717-.558-2.2309-.8158-4.3855-1.827-6.4385-3.0218-1.5289-.8825-2.98179-1.8904-4.3439-3.0133l-.3348,.7727c-.127,.3007-.3663,.54-.66709,.667-.63771,.2693-1.37291-.0293-1.64221-.667l-.7297-1.717h-4.5757c-.9483,0-1.7169-.7687-1.7169-1.7169,0-.9483,.7686-1.717,1.7169-1.717h12.9457c.9483,0,1.717,.7687,1.717,1.717,0,.9482-.7687,1.7169-1.717,1.7169h-2.80709c1.05039,.7065,2.14259,1.3486,3.27069,1.923,1.9825,1.0068,4.0511,1.8342,6.181,2.4724,.53231,.1717,1.0731,.2833,1.6054,.4292,.5333,.1563,1.075,.2824,1.6225,.3778l1.6311,.3176,1.64831,.2232c1.09019,.1803,2.20629,.1889,3.30509,.2833,1.0988,.0515,2.21491,.0172,3.2966,.0343Z" style="fill:#09C6F8;"></path><path d="M324.96869,104.5525v3.5197c-1.18469-.0858-2.378-.0858-3.56269-.2489-1.18471-.1631-2.36941-.249-3.53691-.5065l-1.7169-.3434-1.717-.4378c-.5808-.1387-1.1539-.3078-1.7169-.5065-.5924-.1889-1.159-.352-1.717-.558-2.2309-.8158-4.3855-1.827-6.4385-3.0218-1.5289-.8825-2.98179-1.8904-4.3439-3.0133l-.3348,.7727c-.127,.3007-.3663,.54-.66709,.667-.63771,.2693-1.37291-.0293-1.64221-.667l-.7297-1.717h-4.5757c-.9483,0-1.7169-.7687-1.7169-1.7169,0-.9483,.7686-1.717,1.7169-1.717h12.9457c.9483,0,1.717,.7687,1.717,1.717,0,.9482-.7687,1.7169-1.717,1.7169h-2.80709c1.05039,.7065,2.14259,1.3486,3.27069,1.923,1.9825,1.0068,4.0511,1.8342,6.181,2.4724,.53231,.1717,1.0731,.2833,1.6054,.4292,.5333,.1563,1.075,.2824,1.6225,.3778l1.6311,.3176,1.64831,.2232c1.09019,.1803,2.20629,.1889,3.30509,.2833,1.0988,.0515,2.21491,.0172,3.2966,.0343Z" style="isolation:isolate; opacity:.2;"></path><path d="M412.24089,94.1908c0,1.4413-8.3481,2.6097-18.646,2.6097s-18.646-1.1684-18.646-2.6097c0-1.4414,8.34811-2.6098,18.646-2.6098s18.646,1.1684,18.646,2.6098Z" style="fill:#09C6F8;"></path><path d="M412.24089,94.1908c0,1.4413-8.3481,2.6097-18.646,2.6097s-18.646-1.1684-18.646-2.6097c0-1.4414,8.34811-2.6098,18.646-2.6098s18.646,1.1684,18.646,2.6098Z" style="fill:#fff; isolation:isolate; opacity:.4;"></path><path d="M367.35139,104.5525v3.5197c1.1933-.0858,2.3951-.0858,3.5712-.2489s2.36941-.249,3.5369-.5065l1.717-.3434,1.7169-.4378c.5808-.1387,1.1539-.3078,1.717-.5065,.5923-.1889,1.1675-.352,1.7169-.558,2.2344-.8141,4.3919-1.8254,6.4471-3.0218,1.52761-.8845,2.9803-1.8923,4.3439-3.0133l.3348,.7727c.127,.3007,.3663,.54,.6671,.667,.6377,.2693,1.3729-.0293,1.6422-.667l.7297-1.717h4.5671c.9482,0,1.7169-.7687,1.7169-1.7169,0-.9483-.7687-1.717-1.7169-1.717h-12.9371c-.9483,0-1.717,.7687-1.717,1.717,0,.9482,.7687,1.7169,1.717,1.7169h2.8072c-1.05229,.7083-2.1475,1.3506-3.2794,1.923-1.9802,1.0053-4.0458,1.8327-6.1724,2.4724-.5323,.1717-1.0731,.2833-1.614,.4292-.5304,.1563-1.0692,.2824-1.6139,.3778l-1.6311,.3176-1.6483,.2232c-1.09019,.1803-2.20619,.1889-3.3051,.2833-1.1074,.0515-2.2149,.0172-3.3137,.0343Z" style="fill:#09C6F8;"></path><path d="M367.35139,104.5525v3.5197c1.1933-.0858,2.3951-.0858,3.5712-.2489s2.36941-.249,3.5369-.5065l1.717-.3434,1.7169-.4378c.5808-.1387,1.1539-.3078,1.717-.5065,.5923-.1889,1.1675-.352,1.7169-.558,2.2344-.8141,4.3919-1.8254,6.4471-3.0218,1.52761-.8845,2.9803-1.8923,4.3439-3.0133l.3348,.7727c.127,.3007,.3663,.54,.6671,.667,.6377,.2693,1.3729-.0293,1.6422-.667l.7297-1.717h4.5671c.9482,0,1.7169-.7687,1.7169-1.7169,0-.9483-.7687-1.717-1.7169-1.717h-12.9371c-.9483,0-1.717,.7687-1.717,1.717,0,.9482,.7687,1.7169,1.717,1.7169h2.8072c-1.05229,.7083-2.1475,1.3506-3.2794,1.923-1.9802,1.0053-4.0458,1.8327-6.1724,2.4724-.5323,.1717-1.0731,.2833-1.614,.4292-.5304,.1563-1.0692,.2824-1.6139,.3778l-1.6311,.3176-1.6483,.2232c-1.09019,.1803-2.20619,.1889-3.3051,.2833-1.1074,.0515-2.2149,.0172-3.3137,.0343Z" style="isolation:isolate; opacity:.2;"></path><path d="M429.83959,84.8334c0,1.5931-9.2552,2.8845-20.672,2.8845s-20.672-1.2914-20.672-2.8845c0-1.593,9.2552-2.8844,20.672-2.8844s20.672,1.2914,20.672,2.8844Z" style="fill:#09C6F8;"></path><path d="M429.83959,84.8334c0,1.5931-9.2552,2.8845-20.672,2.8845s-20.672-1.2914-20.672-2.8845c0-1.593,9.2552-2.8844,20.672-2.8844s20.672,1.2914,20.672,2.8844Z" style="fill:#fff; isolation:isolate; opacity:.7;"></path><path d="M418.21589,87.6921h0c0-1.0383-.8417-1.88-1.8801-1.88h-14.345c-1.0383,0-1.8801,.8417-1.8801,1.88h0c.0047,1.035,.8451,1.8715,1.8801,1.8715h14.345c1.035,0,1.8754-.8365,1.8801-1.8715Z" style="fill:#09C6F8;"></path><path d="M411.75159,88.4991l-1.2705,3.0047c-.1413,.3463-.41609,.6211-.7625,.7624-.7112,.2901-1.5229-.0513-1.813-.7624l-1.3134-3.0133,5.1594,.0086Z" style="fill:#09C6F8;"></path><path d="M409.37359,89.1001c-.7594,1.2755-1.60559,2.4974-2.5325,3.6571-.9032,1.1567-1.866,2.2656-2.8845,3.3222-2.0695,2.1252-4.3735,4.0088-6.8677,5.6144-1.2513,.8121-2.54989,1.5489-3.88889,2.2063-.67821,.3005-1.38221,.5666-2.07751,.8585l-1.0388,.4292-1.08169,.3263c-2.89221,.916-5.896,1.433-8.92811,1.5366v-4.2923c2.6526,.0521,5.30011-.2511,7.8722-.9014l.9701-.2318c.3176-.0945,.6267-.2147,.9443-.3263,.6267-.2232,1.2706-.4206,1.8887-.6696,1.2414-.524,2.451-1.1203,3.6227-1.7856,2.3647-1.3519,4.5704-2.9644,6.5759-4.8074,2.0121-1.8449,3.8144-3.9063,5.3741-6.1467l2.0517,1.2105Z" style="fill:#09C6F8;"></path><path d="M371.04279,133.9896l-.558-1.0989c-.02079-.037-.0399-.0751-.057-.114-.2861-.6511,.0096-1.4108,.6607-1.697s1.4109,.0096,1.697,.6607l.558,1.0988c.3038,.6077,.926,.9903,1.6054,.9872h11.96711c.67989,.0052,1.30309-.3781,1.60529-.9872l.558-1.0988c.325-.5767,1.0341-.813,1.64-.5467,.6511,.2862,.9469,1.0459,.66071,1.697l-.558,1.0989c-.73761,1.4812-2.25131,2.416-3.906,2.4123h-11.96711c-1.6547,.0037-3.1685-.9311-3.9061-2.4123Z" style="fill:#09C6F8;"></path><path d="M375.009,135.8267l-10.98851-16.6286c-.0283-.0382-.05449-.0779-.0784-.1189-.3583-.6143-.1508-1.4028,.4635-1.7611s1.4028-.1508,1.7611,.4635l10.9885,16.62c.1403,.2113,.2152,.4594,.215,.713-.00019,.7112-.5769,1.2875-1.2881,1.2873-.4307-.0029-.8323-.2181-1.07309-.5752Z" style="fill:#09C6F8;"></path><path d="M385.80849,135.8181l-11.0227-16.9033c-.0167-.0237-.0325-.048-.0476-.0728-.3687-.6081-.1745-1.4,.4336-1.7687,.60821-.3687,1.4-.1746,1.7687,.4336l11.0572,16.9033,.006,.0093c.3822,.5941,.2104,1.3855-.3838,1.7677-.2047,.1402-.4472,.215-.6953,.2147-.4479,.0113-.8699-.2094-1.1161-.5838Z" style="fill:#09C6F8;"></path><path d="M314.70989,133.9896l-.558-1.0989c-.02089-.037-.03989-.0751-.057-.114-.2862-.6511,.0096-1.4108,.6607-1.697,.651-.2862,1.4108,.0096,1.697,.6607l.558,1.0988c.3022,.6091,.92541,.9924,1.6053,.9872h11.96711c.67939,.0031,1.30159-.3795,1.60539-.9872l.558-1.0988c.3249-.5767,1.0341-.813,1.64-.5467,.6511,.2862,.9468,1.0459,.6607,1.697l-.558,1.0989c-.7376,1.4812-2.2513,2.416-3.90609,2.4123h-11.92421c-1.6701,.0202-3.2045-.9171-3.9489-2.4123Z" style="fill:#09C6F8;"></path><path d="M329.467,136.4019c-.25361,.0001-.50171-.0748-.713-.2151-.59241-.3935-.75361-1.1928-.36011-1.7852l10.9885-16.62c.0239-.041,.0501-.0807,.0784-.1189,.424-.5709,1.2306-.6901,1.8016-.2662,.571,.424,.6901,1.2306,.2662,1.8016l-10.9885,16.6286c-.2387,.3594-.6416,.5753-1.07309,.5752h0Z" style="fill:#09C6F8;"></path><path d="M317.95489,136.1873l-.0093-.0061c-.5908-.3873-.7557-1.1802-.3684-1.771l11.02281-16.9033c.015-.0248,.03089-.0491,.04749-.0728,.4089-.5819,1.2121-.7221,1.794-.3133,.5819,.4089,.7221,1.2121,.3132,1.794l-11.02269,16.9033c-.23961,.364-.646,.5834-1.08171,.5838-.2482,.0003-.4906-.0745-.6954-.2146Z" style="fill:#09C6F8;"></path><rect x="354.337" y="118.2108" width="3.06469" height="8.0697" style="fill:#263238;"></rect><path d="M323.79249,105.5827v9.3316c.0539,1.5214,1.13751,2.8103,2.6269,3.1248,8.6978,1.4657,17.5269,2.0009,26.338,1.5968,8.8082,.4039,17.6344-.1314,26.3293-1.5968,1.4929-.3089,2.5792-1.6011,2.6269-3.1248v-9.3488c-.0477-1.5237-1.134-2.8159-2.6269-3.1248-8.695-1.4639-17.5208-2.0021-26.3293-1.6053-8.81139-.3971-17.64,.1411-26.338,1.6053-1.4955,.3161-2.5807,1.6142-2.6269,3.142Z" style="fill:#09C6F8;"></path><path d="M323.79249,105.5827v9.3316c.0539,1.5214,1.13751,2.8103,2.6269,3.1248,8.6978,1.4657,17.5269,2.0009,26.338,1.5968,8.8082,.4039,17.6344-.1314,26.3293-1.5968,1.4929-.3089,2.5792-1.6011,2.6269-3.1248v-9.3488c-.0477-1.5237-1.134-2.8159-2.6269-3.1248-8.695-1.4639-17.5208-2.0021-26.3293-1.6053-8.81139-.3971-17.64,.1411-26.338,1.6053-1.4955,.3161-2.5807,1.6142-2.6269,3.142Z" style="fill:#fff; isolation:isolate; opacity:.2;"></path><path d="M353.78779,120.4207c2.84021-1.2204,6.1319,.0926,7.3524,2.9328,1.22581,2.8405-.0814,6.1371-2.9207,7.3658-2.8413,1.2296-6.14149-.077-7.3711-2.9183-1.2296-2.8414,.077-6.1416,2.9183-7.3712l.0211-.0091Z" style="fill:#09C6F8;"></path><path d="M360.06789,128.6239c.4402,.973-.24889,2.1908-1.5348,2.7515-1.2859,.5606-2.6203,.2389-3.0647-.7266-.4445-.9655,.2414-2.1951,1.53061-2.744,1.27749-.5456,2.62869-.2539,3.06889,.7191Z" style="fill:#09C6F8;"></path><path d="M360.06789,128.6239c.4402,.973-.24889,2.1908-1.5348,2.7515-1.2859,.5606-2.6203,.2389-3.0647-.7266-.4445-.9655,.2414-2.1951,1.53061-2.744,1.27749-.5456,2.62869-.2539,3.06889,.7191Z" style="fill:#fff; isolation:isolate; opacity:.2;"></path><path d="M359.37009,129.0112c.2421,.5533,.0892,1.1999-.375,1.5862-.5758,.4792-1.431,.4009-1.9102-.1749s-.40089-1.431,.1749-1.9102c.7231-.4284,1.6556-.208,2.1103,.4989Z" style="fill:#263238;"></path><path d="M325.26049,112.5535v-5.4771c0-.237,.1922-.4292,.4292-.4292,.2371,0,.42931,.1922,.42931,.4292v5.4771c0,.2371-.19221,.4292-.42931,.4292-.2351-.0045-.4246-.1941-.4292-.4292Z" style="fill:#263238;"></path><path d="M326.66839,112.5535v-5.4771c0-.237,.1922-.4292,.4292-.4292,.2371,0,.4293,.1922,.4293,.4292v5.4771c0,.2371-.1922,.4292-.4293,.4292-.2351-.0045-.42459-.1941-.4292-.4292Z" style="fill:#263238;"></path><path d="M328.07629,112.5535v-5.4771c0-.237,.1922-.4292,.4292-.4292,.2371,0,.4293,.1922,.4293,.4292v5.4771c0,.2371-.1922,.4292-.4293,.4292-.237,0-.4292-.1921-.4292-.4292Z" style="fill:#263238;"></path><path d="M373.48089,101.6423c-8.72589-1.0641-17.54-1.2022-26.295-.4121l4.0263,6.9193c.2219,.3773,.6267,.6092,1.0645,.6096h17.6244c.5088-.0034,.9644-.3162,1.1503-.7898l2.4295-6.327Z" style="fill:#fff; isolation:isolate; opacity:.2;"></path><path d="M335.02989,105.5827v9.3144c.0518,1.5252,1.141,2.8166,2.6355,3.1249,13.7048,2.3093,27.6994,2.3093,41.4041,0,1.4929-.3089,2.5792-1.6012,2.627-3.1249v-9.3487c-.0478-1.5238-1.1341-2.816-2.627-3.1249-1.1332-.1974-2.28349-.3691-3.4339-.5322l-2.6183,6.7991c-.4962,1.29-1.7341,2.1426-3.1162,2.1462h-17.6245c-1.1899-.0001-2.2895-.635-2.8844-1.6655l-4.5156-7.7262c-2.4037,.2661-4.8075,.5923-7.194,.9958-1.5074,.3028-2.6069,1.6051-2.6527,3.142Zm11.6237,9.7351c-.6732,0-1.219-.5458-1.219-1.219,0-.6733,.5458-1.2191,1.219-1.2191,.6733,0,1.2191,.5458,1.2191,1.219,0,.6733-.5458,1.2191-1.2191,1.2191h0Zm-4.7474,0c-.6685-.0048-1.2066-.5506-1.2018-1.219,0-.6733,.5458-1.2191,1.219-1.2191,.6733,0,1.2191,.5458,1.2191,1.219,0,.6733-.5458,1.2191-1.219,1.2191h-.0173Z" style="fill:#fff; isolation:isolate; opacity:.2;"></path><path d="M327.132,84.8334c0,1.5931-9.25521,2.8845-20.672,2.8845s-20.672-1.2914-20.672-2.8845c0-1.593,9.25509-2.8844,20.672-2.8844s20.672,1.2914,20.672,2.8844Z" style="fill:#09C6F8;"></path><path d="M327.132,84.8334c0,1.5931-9.25521,2.8845-20.672,2.8845s-20.672-1.2914-20.672-2.8845c0-1.593,9.25509-2.8844,20.672-2.8844s20.672,1.2914,20.672,2.8844Z" style="fill:#fff; isolation:isolate; opacity:.7;"></path><path d="M297.40309,87.6921h0c0-1.0383,.8417-1.88,1.8801-1.88h14.345c1.0383,0,1.8801,.8417,1.8801,1.88h0c-.0047,1.035-.8451,1.8715-1.8801,1.8715h-14.345c-1.035,0-1.8754-.8365-1.8801-1.8715Z" style="fill:#09C6F8;"></path><path d="M303.86739,88.4991l1.2705,3.0047c.1413,.3463,.41611,.6211,.7625,.7624,.7112,.2901,1.5229-.0513,1.813-.7624l1.3134-3.0133-5.1594,.0086Z" style="fill:#09C6F8;"></path><path d="M308.33139,87.8724c1.5597,2.2404,3.362,4.3018,5.374,6.1467,2.007,1.8451,4.2159,3.4577,6.5845,4.8074,1.168,.667,2.3749,1.2633,3.6142,1.7856,.6181,.249,1.262,.4465,1.8887,.6697,.3176,.1116,.6266,.2317,.9443,.3262l.9701,.2318c2.572,.6503,5.2196,.9535,7.8722,.9014v4.2923c-3.0321-.1043-6.0357-.6212-8.9281-1.5366l-1.0817-.3263-1.0388-.4292c-.6954-.2747-1.3993-.5408-2.0775-.8585-1.339-.6574-2.6376-1.3942-3.8889-2.2062-2.4942-1.6057-4.7982-3.4892-6.8677-5.6144-1.0185-1.0567-1.9813-2.1656-2.8845-3.3223-.9269-1.1597-1.7731-2.3816-2.5325-3.6571l2.0517-1.2105Z" style="fill:#09C6F8;"></path></g><path d="M466.04529,285.2668s-105.6949-156.0133-106.4579-155.7792l-2.5235,.0815-88.4064,160.0059s89.5131,68.1805,197.3878-4.3082Z" style="fill:#09C6F8; opacity:.3;"></path></g></g><g id="freepik--Floor--inject-153"><g><path d="M491.62309,474.0677c0,3.3867-108.1783,6.1322-241.62309,6.1322s-241.62307-2.7455-241.62307-6.1322,108.17827-6.1323,241.62307-6.1323,241.62309,2.7455,241.62309,6.1323Z" style="fill:#f5f5f5;"></path><path d="M8.37693,408.0853s1.14959,.051,3.29557,.1525c22.7842,1.0775,157.886,7.8375,221.95289,19.4786,70.1012,12.7375,100.6275,27.0036,100.6275,27.0036,0,0,53.3525-30.7786,137.5767-34.4814l19.7935,.4888v53.3402H8.37693" style="fill:#09C6F8;"></path><path d="M62.6324,402.621c2.8498-4.6666,5.7334-9.4098,7.1996-14.6775,1.4662-5.2678,1.3559-11.2224-1.5431-15.8587-7.6057,8.2025-11.6953,19.5622-11.0631,30.7304-5.4809-11.6744-13.0588-22.3605-22.263-31.3947-1.0203,6.7489,.5907,13.7668,3.9451,19.7111,3.3543,5.9443,8.379,10.8501,14.0878,14.5912-8.9302-3.1863-18.4012-4.8506-27.8827-4.9,10.226,8.2567,21.9936,12.4085,35.1141,11.6363l2.1422-1.0007c9.4737-4.1628,15.1841-11.7983,18.9113-18.2199,1.5698-2.7046,3.2892-6.5751,2.4775-7.2183-7.5916,4.7818-14.6843,10.3553-21.1257,16.6008Z" style="fill:#09C6F8;"></path><path d="M387.46859,433.4159c2.8498-4.6667,5.73341-9.4099,7.1997-14.6776,1.4662-5.2677,1.3558-11.2224-1.5432-15.8587-7.6056,8.2025-11.6952,19.5622-11.06309,30.7305-5.48081-11.6745-13.05871-22.3606-22.26291-31.3947-1.0204,6.7488,.5907,13.7667,3.9451,19.711,3.3543,5.9443,8.379,10.8501,14.0877,14.5912-8.9301-3.1862-18.4011-4.8506-27.8826-4.9,10.226,8.2567,21.9935,12.4085,35.1141,11.6363l2.1421-1.0007c9.4737-4.1628,15.1842-11.7983,18.9114-18.2199,1.5697-2.7046,3.2892-6.5751,2.4775-7.2183-7.5917,4.7818-14.6843,10.3553-21.1258,16.6009Z" style="fill:#09C6F8;"></path><path d="M334.25289,454.72l38.2615,19.9972,119.1087-.6496v-53.3402s-77.1442-7.2385-157.3702,33.9926Z" style="isolation:isolate; opacity:.3;"></path><path d="M132.8478,414.2445c3.0584-2.1397,6.1588-4.318,8.5162-7.212,2.3573-2.8939,3.9164-6.6486,3.3708-10.3411-6.9998,3.051-12.6636,9.0381-15.3218,16.1963-.2362-8.8006-2.0542-17.5564-5.3411-25.7235-2.4835,3.9422-3.3946,8.7722-2.9218,13.4073,.4728,4.6352,2.2743,9.0774,4.8221,12.9782-4.7144-4.4345-10.1832-8.065-16.1001-10.6883,4.1386,7.9603,10.3637,13.7745,18.7814,16.8789l1.6135-.0402c7.0636-.0135,12.723-3.228,16.8101-6.2255,1.7213-1.2624,3.855-3.2132,3.5232-3.8374-6.0558,.9152-12.0159,2.4621-17.7525,4.6073Z" style="fill:#09C6F8;"></path><path d="M317.29909,467.5846c-4.5615-2.521-10.5185,4.3476-10.5185,4.3476,0,0,6.6386-8.9658,3.4311-10.5103-3.2076-1.5445-9.284,6.1627-9.284,6.1627,0,0,5.2848-11.2244,1.6242-11.9933-1.7754-.373-4.7186,2.7472-7.2804,6.0587-.2696-4.2372-1.2943-8.6847-4.3732-9.0971-3.6172-.4845-5.2084,5.4985-5.903,10.3355-2.7464-3.7202-6.2194-7.7165-8.2161-7.2971-3.6606,.7689,1.6245,11.9933,1.6245,11.9933,0,0-6.07669-7.7072-9.2843-6.1627-3.2075,1.5445,3.4314,10.5103,3.4314,10.5103,0,0-5.9573-6.8686-10.5185-4.3476-4.5612,2.5211-5.2014,6.4059-5.2014,6.4059h65.6696s-.6404-3.8848-5.2014-6.4059Z" style="isolation:isolate; opacity:.3;"></path><path d="M121.1945,467.5846c-4.5615-2.521-10.5185,4.3476-10.5185,4.3476,0,0,6.6386-8.9658,3.4311-10.5103-3.2076-1.5445-9.284,6.1627-9.284,6.1627,0,0,5.2848-11.2244,1.6242-11.9933-1.7754-.373-4.7186,2.7472-7.2804,6.0587-.2696-4.2372-1.2943-8.6847-4.3732-9.0971-3.6172-.4845-5.2084,5.4985-5.903,10.3355-2.7464-3.7202-6.2193-7.7165-8.2161-7.2971-3.6606,.7689,1.6245,11.9933,1.6245,11.9933,0,0-6.0767-7.7072-9.2843-6.1627-3.2075,1.5445,3.4314,10.5103,3.4314,10.5103,0,0-5.9573-6.8686-10.5185-4.3476-4.5612,2.5211-5.2014,6.4059-5.2014,6.4059H126.3959s-.6404-3.8848-5.2014-6.4059Z" style="isolation:isolate; opacity:.3;"></path><path d="M285.19539,435.6204c-3.8858-3.4731-11.2223,1.8972-11.2223,1.8972,0,0,8.4677-7.2631,5.6846-9.4828-2.7834-2.2198-10.4229,3.9414-10.4229,3.9414,0,0,7.6507-9.7664,4.2531-11.3308-1.64789-.7589-5.2118,1.6279-8.4464,4.2861,.6804-4.1909,.6714-8.7549-2.23849-9.8424-3.41871-1.2774-6.30171,4.2013-8.05561,8.7623-1.8493-4.2381-4.3456-8.9073-6.3856-8.9429-3.7399-.0652-1.0859,12.054-1.0859,12.054,0,0-4.2087-8.8664-7.6796-8.0746-3.4708,.7917,1.0058,11.0104,1.0058,11.0104,0,0-4.2789-8.0224-9.2869-6.58-5.0079,1.4426-6.4968,5.0874-6.4968,5.0874l23.989,5.4773,16.0438,3.6631,23.9892,5.4773s.2404-3.9299-3.645-7.403Z" style="fill:#09C6F8;"></path><path d="M473.63989,416.3225c-4.7597-2.1229-10.1094,5.2287-10.1094,5.2287,0,0,5.8498-9.4992,2.5224-10.7645-3.3277-1.2654-8.7247,6.9318-8.7247,6.9318,0,0,4.3084-11.6341,.5955-12.088-1.80069-.2203-4.4671,3.1395-6.7372,6.6574-.6299-4.1987-2.0301-8.5427-5.133-8.6911-3.6454-.1742-4.72049,5.9227-5.0002,10.8013-3.0535-3.4724-6.8546-7.1581-8.8084-6.5699-3.5817,1.0783,2.6413,11.8111,2.6413,11.8111,0,0-6.7118-7.1609-9.7759-5.3485-3.0642,1.8124,4.3151,10.1794,4.3151,10.1794,0,0-6.5213-6.3356-10.8509-3.4348s-4.6362,6.8261-4.6362,6.8261l24.51671-2.0983,16.39669-1.4034,24.517-2.0983s-.9694-3.8161-5.7288-5.939Z" style="fill:#09C6F8;"></path><path d="M473.63989,416.3225c-4.7597-2.1229-10.1094,5.2287-10.1094,5.2287,0,0,5.8498-9.4992,2.5224-10.7645-3.3277-1.2654-8.7247,6.9318-8.7247,6.9318,0,0,4.3084-11.6341,.5955-12.088-1.80069-.2203-4.4671,3.1395-6.7372,6.6574-.6299-4.1987-2.0301-8.5427-5.133-8.6911-3.6454-.1742-4.72049,5.9227-5.0002,10.8013-3.0535-3.4724-6.8546-7.1581-8.8084-6.5699-3.5817,1.0783,2.6413,11.8111,2.6413,11.8111,0,0-6.7118-7.1609-9.7759-5.3485-3.0642,1.8124,4.3151,10.1794,4.3151,10.1794,0,0-6.5213-6.3356-10.8509-3.4348s-4.6362,6.8261-4.6362,6.8261l24.51671-2.0983,16.39669-1.4034,24.517-2.0983s-.9694-3.8161-5.7288-5.939Z" style="isolation:isolate; opacity:.3;"></path></g></g><g id="freepik--Character--inject-153"><g><g><path d="M216.72429,451.9355l-.0217,20.1005,10.1186,.7254,3.5563-18.8831c-4.6279-3.0828-9.1817-3.8188-13.6532-1.9428Z" style="fill:#ebb376;"></path><path d="M217.055,469.8066c-.99561,2.6526-1.06081,13.5067-1.06081,13.5067l21.4482,.0231c1.2742-3.9251-.6977-6.6042-3.1992-6.9599-1.07519-.1514-2.3397-1.2543-3.2615-2.2173-.0063-.1248-1.3179-6.154-2.1283-6.4425,0,0-.5586-.627-1.0345-.001-.476,.6257-.8885,2.6632-.8885,2.6632-3.3481-4.1518-6.6293-3.5974-9.87539-.5723Z" style="fill:#263238;"></path><path d="M216.79489,472.9578c2.4235-.892,5.02411-.5531,7.137,.9295,.3698,.2596,.7206-.3473,.3537-.6046-2.251-1.5796-5.0959-1.9503-7.677-1-.4197,.1543-.2383,.8315,.1863,.6751h0Z" style="fill:#fff;"></path><path d="M237.37789,481.7489h-.0003l-21.13259-.0228c-.19361-.0002-.35041-.157-.35021-.3505,.0001-.1932,.15721-.3498,.3505-.3498h.0004l21.1326,.0229c.1936,.0002,.3503,.157,.3501,.3505-.0003,.193-.1571,.3497-.3505,.3497Z" style="fill:#fff;"></path></g><g><path d="M260.76339,449.3142l-.0247,22.6858,9.7359,.741,4.7896-21.2351c-3.9089-2.9017-8.44819-4.3232-14.5008-2.1917Z" style="fill:#ebb376;"></path><path d="M260.35479,469.8535c-.9957,2.6525-1.0609,13.5066-1.0609,13.5066l24.6404,.0267c1.2742-3.9252-1.38829-6.2519-3.8898-6.6077-1.0752-.1513-4.8413-1.6101-5.7632-2.5731-.0061-.1248-1.3178-6.154-2.1282-6.4424,0,0-.5585-.6271-1.0344-.0011-.4759,.6258-.8885,2.6633-.8885,2.6633-3.34819-4.1519-6.62919-3.5975-9.8754-.5723Z" style="fill:#263238;"></path><path d="M260.48079,473.0048c2.4234-.8922,5.024-.5533,7.137,.9293,.3699,.2597,.7206-.3473,.3538-.6046-2.251-1.5796-5.0961-1.9502-7.6772-1-.4197,.1546-.2382,.8315,.1864,.6753h0Z" style="fill:#fff;"></path><path d="M283.93629,481.7993h-.00029l-24.39151-.0265c-.19349-.0002-.3502-.157-.35-.3505,.0002-.1931,.1571-.3497,.35051-.3497h.00029l24.3914,.0264c.1936,.0001,.3504,.1571,.3501,.3506-.0002,.1931-.157,.3497-.3505,.3497Z" style="fill:#fff;"></path></g><g><path d="M215.68179,459.2566l19.91,1.2692c4.4668-17.3339,8.882-79.4867,9.3383-98.1463,.5453-22.2955,7.2122-78.252,1.3172-89.896s-32.5598-2.3705-32.5598-2.3705c0,0,3.3226,68.1341,1.9943,89.8634-1.1511,18.833-2.9323,74.192,0,99.2802Z" style="fill:#263238;"></path><polygon points="237.74109 454.2461 236.44659 462.2108 214.87049 461.3715 214.07949 453.7237 237.74109 454.2461" style="fill:#09C6F8;"></polygon><path d="M255.44589,459.2566l19.7382,1.2692c2.403-19.1889,12.057-89.0706,11.2638-102.457-.9687-16.3506-12.4006-87.1266-16.6518-92.5834-4.2512-5.457-35.3753,8.6878-35.3753,8.6878,0,0,12.7914,60.8619,22.87721,87.1848,2.09519,5.4682-3.47271,74.5603-1.85211,97.8986Z" style="fill:#263238;"></path><polygon points="277.441 454.8429 276.43419 462.2108 254.49849 460.5258 254.05679 452.8128 277.441 454.8429" style="fill:#09C6F8;"></polygon><g style="opacity:.3;"><path d="M241.98009,314.9017c-.3776-.9942-.7569-1.9876-1.1078-2.9995-1.8764-5.4087-3.2951-11.0379-4.4216-16.7815-3.2462-.4152-6.45369-1.267-9.57969-2.5485-.39641-.1624-.226-.9726,.17219-.8096,4.9429,2.0266,10.0797,2.9673,15.2623,2.7937,.4173-.014,.4157,.8254,0,.8394-1.7292,.0579-3.4537-.0189-5.1691-.2057,1.12961,5.7055,2.5434,11.303,4.42761,16.6693,1.88679,5.3737,4.17529,10.4856,6.53879,15.5253,.21721,.4634-.3427,.8846-.5589,.4236-1.7413-3.7127-3.4353-7.4693-4.9645-11.3362-.1413,4.6116-.5689,18.8636-1.0503,37.7452-.8307,32.5842-7.2099,85.563-8.9923,99.8518h-.6557c1.7554-14.0623,8.1688-67.2345,9.0011-99.8795,.5691-22.3199,1.0635-38.1821,1.0979-39.2878Z" style="fill:#fff;"></path><path d="M218.38839,359.3934c5.7401-.4032,11.4882-.2027,17.2034,.6,.4104,.0575,.4134,.8974,0,.8393-5.7152-.8026-11.4633-1.003-17.2034-.5999-.4169,.0293-.41439-.8103,0-.8394Z" style="fill:#fff;"></path><path d="M282.90389,359.4667c-.4455-10.2286-10.2704-53.6491-10.3695-54.0866-.0505-.2222,.0478-.4554,.2192-.5208,.171-.065,.35141,.0615,.4018,.2842,.4059,1.7898,9.945,43.9508,10.3948,54.2756,.3867,8.8806-9.8567,90.9836-10.2931,94.4745-.0257,.206-.16309,.3524-.319,.3524-.0173,0-.0346-.0016-.05209-.0053-.17651-.0372-.29651-.2526-.26771-.4817,.10671-.8537,10.6683-85.5031,10.2856-94.2923Z" style="fill:#fff;"></path><path d="M277.32089,300.8842c-7.4006-3.6225-9.7931-14.151-11.5555-23.1553-.1028-.5246,.52161-.7462,.6241-.2231,1.6962,8.665,3.9484,19.0667,11.1034,22.569,.3868,.1893,.2182,1.0004-.172,.8094Z" style="fill:#fff;"></path><path d="M260.75359,360.2007c4.8101-.3925,9.6203-.7851,14.4305-1.1776,.4167-.034,.4137,.8057,0,.8395-4.8102,.3925-9.6204,.785-14.4305,1.1775-.41659,.034-.4138-.8055,0-.8394Z" style="fill:#fff;"></path></g><polygon points="237.74109 454.2461 236.44659 462.2108 214.87049 461.3715 214.07949 453.7237 237.74109 454.2461" style="isolation:isolate; opacity:.2;"></polygon><polygon points="277.441 454.8429 276.43419 462.2108 254.49849 460.5258 254.05679 452.8128 277.441 454.8429" style="isolation:isolate; opacity:.2;"></polygon></g><g><path d="M283.50679,225.4916h2.0724l5.2947-16.8192c.044-.1405,.0668-.2868,.0677-.4341,.0045-.8166-.6539-1.4821-1.4704-1.4866h-.2401l-5.7243,18.7399Z" style="fill:#09C6F8;"></path><path d="M293.02209,241.957l8.3022-27.1685c.073-.2419,.1114-.4931,.11371-.7458,.01389-1.4725-1.16851-2.6774-2.641-2.6913h0l-9.93231,32.4885h1.6301c1.1615-.0134,2.1821-.7737,2.5273-1.8829Z" style="fill:#09C6F8;"></path><path d="M240.64369,243.8399h48.221l10.0081-32.5264h-10.9559l1.39011-4.5618h-6.31831l4.903-16.061c.0196-.0448,.0339-.0917,.0427-.1398,.06261-.3433-.165-.6724-.5083-.7349-.3433-.0626-.6723,.1649-.7349,.5082l-5.0546,16.4275h-12.0047l2.3757-7.7715c.0995-.3345-.0854-.6874-.417-.7961-.335-.0977-.6858,.0947-.7835,.4297l-2.5273,8.1379h-6.849l-1.39,4.5618h-9.46479l-9.93231,32.5264Z" style="fill:#09C6F8;"></path><path d="M240.64369,243.8399h48.221l10.0081-32.5264h-10.9559l1.39011-4.5618h-6.31831l4.903-16.061c.0196-.0448,.0339-.0917,.0427-.1398,.06261-.3433-.165-.6724-.5083-.7349-.3433-.0626-.6723,.1649-.7349,.5082l-5.0546,16.4275h-12.0047l2.3757-7.7715c.0995-.3345-.0854-.6874-.417-.7961-.335-.0977-.6858,.0947-.7835,.4297l-2.5273,8.1379h-6.849l-1.39,4.5618h-9.46479l-9.93231,32.5264Z" style="fill:#fff; isolation:isolate; opacity:.4;"></path></g><g><g><path d="M253.41929,142.9626c.4802-.1138,.9856,.417,1.1372,1.1499,.1517,.7329-.1137,1.39-.5939,1.5037-.4802,.1138-.98559-.417-1.1373-1.1499-.2021-.7329,.1138-1.39,.594-1.5037Z" style="fill:#263238;"></path><path d="M254.77129,152.6548c1.2714,.0674,2.5071-.4324,3.374-1.3648-1.83929-1.6258-3.4465-3.4967-4.7766-5.56l1.4026,6.9248Z" style="fill:#d58745;"></path><path d="M249.65359,140.7891c.7416-.8413,1.8402-1.2779,2.9569-1.1752h0c.239,.031,.4606-.1297,.50551-.3665,.03789-.2406-.126-.4666-.36651-.5054-1.4253-.165-2.8411,.3777-3.7909,1.4532-.16859,.172-.16859,.4472,0,.6192,.0825,.0774,.1902,.1223,.3032,.1263,.1484,.0238,.2981-.0342,.3918-.1516Z" style="fill:#263238;"></path><path d="M244.82639,165.8473c-1.3142,5.2821-1.51639,10.8927,6.06561,12.6997,0,0,7.266,6.8869-6.63421,6.8869-12.6239,0-14.4814-6.8869-14.4814-6.8869,4.7513-4.5239,3.4244-16.9709,2.09761-23.7567l12.95239,11.057Z" style="fill:#ebb376;"></path><path d="M227.74589,142.055c1.3347-6.8075,7.9353-11.244,14.7427-9.9093,9.5532,1.7944,13.4959,14.9237,13.2052,23.4155-.3159,9.4268-10.602,15.8209-18.8663,10.2482-5.50949-3.7025-6.4572-9.0225-8.84549-17.9312-.53421-1.8957-.615-3.8905-.23611-5.8232Z" style="fill:#ebb376;"></path><path d="M244.37149,160.1103c-.9603,3.0833-8.5043,4.8904-12.0299,3.2729-1.845-.834-2.0345-2.8938-4.8525-6.1035-2.8179-3.2096-8.2895-10.2608-3.7909-18.0449,4.6755-3.1718,16.4022-4.0184,22.1392-1.9081,4.2711,1.7059,2.2745,7.3797,1.4279,10.5515,3.4876,4.7892-1.6428,8.3527-2.8938,12.2321Z" style="fill:#263238;"></path><path d="M222.25759,132.5374c-.8972,5.6107,3.0328,7.582,3.0328,7.582-4.43539,3.9678-6.1667-3.6899-3.0328-7.582Z" style="fill:#263238;"></path><path d="M220.38739,146.3618c2.0598-4.1069,3.9552-4.208,3.9552-4.208-1.8449-3.753-4.1068,.5939-3.9552,4.208Z" style="fill:#263238;"></path><path d="M227.14789,141.5852c-8.9087,.3791-3.9805-10.1092,1.2637-11.1581,6.3182-1.2636,11.1707-6.95,13.2052-10.0081,.973,3.3234-1.78179,6.4826-1.78179,6.4826,1.95869-.0506,7.37969-2.5779,8.378-4.903,.61739,2.4325,.29709,5.0082-.89721,7.2154,2.5279-.5489,5.1691,.0478,7.2155,1.6302-1.6946-.1002-3.3421,.5793-4.4734,1.8449,1.3492,.3294,2.7578,.3294,4.1069,0-2.3757,3.7404-6.571,5.9139-12.8892,5.32,0,0-2.3504,3.0959-14.1277,3.5761Z" style="fill:#263238;"></path><path d="M246.69669,143.2027c2.66631,.7834,4.1068,4.6376,4.2585,7.1017,.1769,2.7042-1.63019,4.4986-4.0437,2.7042-1.83849-1.3827-3.1707-3.3322-3.791-5.5474-.6824-2.6663,.9099-5.042,3.5762-4.2585Z" style="fill:#ebb376;"></path></g><path d="M221.43619,194.9744l-3.6519,6.3183-3.5635,6.4825c-2.3631,4.3344-4.5997,8.7066-6.6595,13.0915-1.0109,2.2114-1.9839,4.3975-2.8811,6.5962l-.1643,.4044c.0042,.0294,.0042,.0591,0,.0885-.0403,.0549-.0743,.1142-.101,.1769-.0714,.1158-.1307,.2385-.177,.3664-.07989,.4768-.0275,.9663,.1517,1.4153,.7,1.7238,1.7352,3.2915,3.04541,4.6123,1.54629,1.6571,3.19209,3.2185,4.92819,4.6755l-2.9569,6.3183c-1.3925-.3844-2.7564-.8657-4.0816-1.4406-1.3055-.5735-2.5718-1.232-3.791-1.9712-2.8405-1.6417-5.2761-3.9002-7.127-6.6089-1.1401-1.7421-1.8982-3.706-2.2241-5.7623-.1768-1.1373-.2023-2.2931-.0758-3.4371,.0568-.5664,.1539-1.1281,.2907-1.6807l.2148-.8213,.1517-.5055c.8087-2.5273,1.6553-5.1178,2.641-7.5819,1.9208-4.9535,4.08159-9.7554,6.44459-14.4183,1.1626-2.3251,2.4009-4.6249,3.6899-6.9122,1.2889-2.2872,2.5526-4.4985,4.0437-6.7984l11.853,7.3923Z" style="fill:#ebb376;"></path><path d="M207.90249,245.1162c3.1844,3.1717,8.378,2.4009,8.378,2.4009l-.3791-10.7158-6.6468,1.7312-1.3521,6.5837Z" style="fill:#ebb376;"></path><polygon points="215.90139 236.8013 216.28049 247.5171 223.81189 244.4085 225.31569 234.9943 215.90139 236.8013" style="fill:#ebb376;"></polygon><path d="M250.83809,178.2435s-3.2633-1.3354-1.7848-3.9512c-4.8019-1.4026-16.2461-1.2782-18.7734-.5326-2.3125,.6823-4.3282,3.2201-3.3047,5.103l23.8629-.6192Z" style="fill:#09C6F8;"></path><path d="M224.02669,201.0273c-1.5529,6.4271-4.7491,12.3404-9.2752,17.1604l-17.4637-13.3188s7.1649-22.215,15.8715-24.2116c8.8961-2.0471,13.84971,8.7192,10.8674,20.37Z" style="fill:#09C6F8;"></path><path d="M224.48159,198.9423c-.1263,.6824-.278,1.3774-.4549,2.0724-1.5529,6.4271-4.7491,12.3404-9.2752,17.1604l-.7708-.5939c.3159-7.405,1.9081-15.922,6.6342-20.5975l3.8667,1.9586Z" style="isolation:isolate; opacity:.2;"></path><path d="M250.89189,178.547c-7.0327-.4047-14.08289-.4047-21.1156,0-5.5784,.3402-11.129,1.0409-16.617,2.0976,7.3544,35.913,2.5652,73.1402,2.9064,80.7221h49.6489c9.33841-69.0838-.5434-80.2419-.5434-80.2419-4.68519-1.2303-9.4596-2.0922-14.2793-2.5778Z" style="fill:#09C6F8;"></path><path d="M218.27509,178.804c-8.8455,2.1989-7.5819,15.0913-7.5819,27.5877,0,19.1611-.1891,51.2724,.6702,69.6961,.0204,1.3625,3.5821,2.8107,4.8267,3.0288,10.6653,1.475,40.222,1.8437,50.028-.2732,1.1422-.2824,9.7712-1.9922,9.8426-3.2562-12.9984-21.191-4.9144-77.9635-5.5841-84.7921-.7077-7.0744-3.0454-9.2186-5.47159-10.4068-9.47741-4.6708-40.23471-3.2368-46.72991-1.5843Z" style="fill:#09C6F8;"></path><path d="M269.22749,193.9004c.4549,2.1734,.9478,4.5491,1.47851,6.8616,.53069,2.3125,1.112,4.5997,1.69329,6.8742,1.1196,4.4508,2.50371,8.8308,4.1448,13.1167,.7311,1.8966,1.6231,3.7272,2.6663,5.4717,.3631,.6251,.7863,1.2134,1.26361,1.7564l.34119,.3539,.3664,.3411c.1896,.2149,.2401,.3539,.54341,.4802,.52109,.1148,1.06519,.0618,1.55429-.1516,.8215-.321,1.59871-.7456,2.3125-1.2636,.4423-.2654,.8719-.594,1.2636-.8972,.3918-.3033,.8593-.7077,1.1752-.9099l6.154,3.2729c-.278,.8719-.4928,1.529-.7835,2.2114-.2906,.6824-.6444,1.3521-1.0109,2.0218-.8189,1.406-1.8409,2.6834-3.0327,3.791-1.4391,1.3645-3.1666,2.388-5.0546,2.9948-2.1877,.6675-4.5156,.7286-6.7353,.1769-.5322-.1257-1.05559-.2861-1.5669-.4802-.497-.1852-.9822-.4004-1.4532-.6444-.9418-.5107-1.8234-1.1253-2.6284-1.8323-1.305-1.1248-2.4753-2.3969-3.4877-3.791-1.6762-2.3564-3.1193-4.8703-4.309-7.5061-2.1728-4.8024-3.96839-9.7667-5.3705-14.8479-.7077-2.4767-1.3142-4.9156-1.88289-7.4429-.56861-2.5273-1.08671-4.9156-1.51641-7.5819l13.8749-2.3756Z" style="fill:#ebb376;"></path><path d="M272.34869,188.6562c3.1392,7.5268,5.4279,15.3806,6.8237,23.4155l-19.9783,10.4377s-17.9565-17.1351-10.3745-32.2989c4.3343-8.7318,17.7037-14.4814,23.5291-1.5543Z" style="fill:#09C6F8;"></path><path d="M287.17139,228.436c-.4675-6.7353,7.5819-9.389,7.5819-9.389l3.8542,9.389-7.266,3.5887-4.1701-3.5887Z" style="fill:#ebb376;"></path><polygon points="298.60749 228.436 294.75329 219.047 301.05889 217.7202 300.36389 226.1235 298.60749 228.436" style="fill:#ebb376;"></polygon><g><path d="M245.77949,199.9696c-.29749-.595,3.7187-15.4699,6.22251-22.5947,0,0,5.44819-1.0755,9.51069,1.7136,0,0-6.327,18.9474-7.1626,26.2361-.8356,7.2888,1.089,35.1542,1.089,35.1542l13.40691,.4799,.24339,4.2648h-14.3849l-8.925-45.2539Z" style="fill:#263238;"></path><path d="M210.56679,199.9696c-.2975-.595,2.9278-13.1208,5.4316-20.2455,0,0,4.0279-2.7431,10.0803-1.9559,0,0-6.10569,20.2677-6.9413,27.5564-.8357,7.2888,1.089,35.1542,1.089,35.1542l13.4069,.4799,.9691,4.2648h-15.1107l-8.9249-45.2539Z" style="fill:#263238;"></path><path d="M247.30029,193.1268c2.8884,1.9231,5.468,4.5826,7.8156,7.7955l-.7166,4.1194-7.8391-8.9197,.7401-2.9952Z" style="opacity:.3;"></path><path d="M210.63079,200.2946s-.1873-.3359-.0832-.8228,.5442-3.1536,.5442-3.1536c3.5441-3.6124,7.5026-6.0079,11.8018-7.403l-.6592,2.4501-11.6036,8.9293Z" style="opacity:.3;"></path><path d="M230.53909,189.7405h1.2751c13.58666,0,24.6173,11.03064,24.6173,24.6173v32.2261c0,13.59472-11.03718,24.6319-24.6319,24.6319h-1.246c-13.59472,0-24.6319-11.03718-24.6319-24.6319v-32.226c0-13.58671,11.03069-24.6174,24.6174-24.6174Z" style="fill:#263238;"></path><path d="M211.22549,242.2004h36.907v4.962c0,9.93353-8.06477,17.9983-17.9983,17.9983h-.9105c-9.93348,0-17.9982-8.06472-17.9982-17.9982v-4.9621h0Z" style="fill:#fff; opacity:.3;"></path><path d="M252.59609,224.033c0-3.71393,.26181-7.52953-.10178-11.23042-.63214-6.43444-4.20174-12.37294-9.6182-15.91423-5.58523-3.65163-12.80385-4.35158-19.02772-1.9692-6.12447,2.34433-10.88997,7.49156-12.95062,13.69617-1.58015,4.75783-1.14058,9.90566-1.14058,14.84528,0,.48259,.75,.48339,.75,0,0-3.66948-.31251-7.5186,.26169-11.15579,1.03091-6.53009,5.09124-12.42379,10.92146-15.57584,5.91485-3.1978,13.32313-3.28947,19.26192-.10904,5.67889,3.04125,9.66944,8.73309,10.65376,15.09297,.62056,4.00954,.24006,8.27684,.24006,12.32011,0,.48259,.75,.48339,.75,0h0Z"></path><path d="M226.92789,190.7869c-.5425-.8795-1.0988-1.969-.6307-2.8902,.3842-.7558,1.3004-1.0486,2.1313-1.2173,2.4162-.4904,4.9197-.5471,7.3556-.1666,.4082,.0637,.8753,.1847,1.0457,.5612,.1549,.3425-.0103,.7374-.1737,1.0759-.3876,.8035-.7753,1.607-1.163,2.4104l-2.4813-.2051c.183-.3907,.3659-.7813,.5488-1.1719,.1306-.279,.255-.6303,.065-.8728-.1742-.2226-.5078-.2137-.7888-.1834-1.0877,.1171-2.1773,.2448-3.2424,.4945-.471,.1104-1.0048,.3069-1.1527,.7675-.1628,.5073,.2376,1.0069,.6078,1.3901l-2.1216,.0077Z" style="fill:#263238;"></path><rect x="222.575" y="207.2042" width="14.208" height="5.4879" style="fill:#fff;"></rect><path d="M214.39159,246.1976h30.5748c.48259,0,.48339-.75,0-.75h-30.5748c-.48259,0-.48339,.75,0,.75h0Z" style="fill:#263238;"></path></g></g></g></g></svg>
