<?xml version="1.0" standalone="no"?>
<!DOCTYPE svg PUBLIC "-//W3C//DTD SVG 20010904//EN"
 "http://www.w3.org/TR/2001/REC-SVG-20010904/DTD/svg10.dtd">
<svg version="1.0" xmlns="http://www.w3.org/2000/svg"
 width="60.000000pt" height="28.000000pt" viewBox="0 0 75.000000 36.000000"
 preserveAspectRatio="xMidYMid meet">
<g transform="translate(0.000000,36.000000) scale(0.100000,-0.100000)"
fill="#353535" stroke="none">
<path d="M510 314 c-47 -20 -100 -73 -100 -100 0 -22 26 -51 37 -41 3 4 0 13
-7 22 -19 23 10 58 74 90 85 41 120 22 98 -53 -13 -42 -85 -142 -102 -142 -16
0 -12 43 10 112 24 75 24 78 6 78 -18 0 -48 -110 -45 -163 3 -38 1 -42 -19
-41 -25 1 -30 -23 -7 -32 26 -10 100 43 140 100 45 66 59 141 30 169 -20 21
-68 21 -115 1z"/>
<path d="M242 243 l-39 -76 5 55 c3 45 1 56 -13 62 -40 15 -126 -61 -111 -100
9 -22 35 -18 29 6 -7 27 53 88 70 71 9 -9 6 -32 -11 -98 -15 -55 -20 -89 -13
-96 16 -16 26 -2 70 103 24 55 46 99 48 96 2 -2 -1 -32 -8 -65 -6 -34 -9 -64
-6 -68 13 -12 38 8 65 53 48 81 50 80 30 -8 -21 -90 -19 -118 6 -118 12 0 14
7 10 28 -3 15 4 68 15 117 31 128 13 136 -59 25 -24 -37 -39 -54 -36 -40 3 14
9 49 12 78 10 80 -17 70 -64 -25z"/>
</g>
</svg>
